<?xml version="1.0" encoding="UTF-8" standalone="no"?>
<!-- Generator: Adobe Illustrator 15.0.1, SVG Export Plug-In . SVG Version: 6.00 Build 0)  -->

<svg
   xmlns:dc="http://purl.org/dc/elements/1.1/"
   xmlns:cc="http://creativecommons.org/ns#"
   xmlns:rdf="http://www.w3.org/1999/02/22-rdf-syntax-ns#"
   xmlns:svg="http://www.w3.org/2000/svg"
   xmlns="http://www.w3.org/2000/svg"
   xmlns:sodipodi="http://sodipodi.sourceforge.net/DTD/sodipodi-0.dtd"
   xmlns:inkscape="http://www.inkscape.org/namespaces/inkscape"
   version="1.1"
   id="svg2"
   inkscape:version="0.92.3 (2405546, 2018-03-11)"
   sodipodi:version="0.32"
   inkscape:output_extension="org.inkscape.output.svg.inkscape"
   sodipodi:docname="phone2.svg"
   x="0px"
   y="0px"
   width="20"
   height="20"
   viewBox="0 0 20 20"
   enable-background="new 0 0 256 256"
   xml:space="preserve"
   inkscape:export-filename="/home/laurent/Images/Stock-DessinBD/copyr-libre/deco-perso-symbole/Phoneblue_Shiny_Icon.svg.png"
   inkscape:export-xdpi="40.09"
   inkscape:export-ydpi="40.09"><metadata
   id="metadata37"><rdf:RDF><cc:Work
       rdf:about=""><dc:format>image/svg+xml</dc:format><dc:type
         rdf:resource="http://purl.org/dc/dcmitype/StillImage" /><dc:title></dc:title></cc:Work></rdf:RDF></metadata><defs
   id="defs35" /><sodipodi:namedview
   pagecolor="#ffffff"
   bordercolor="#666666"
   borderopacity="1"
   objecttolerance="10"
   gridtolerance="10"
   guidetolerance="10"
   inkscape:pageopacity="0"
   inkscape:pageshadow="2"
   inkscape:window-width="1313"
   inkscape:window-height="835"
   id="namedview33"
   showgrid="false"
   inkscape:zoom="3.26"
   inkscape:cx="-13.256845"
   inkscape:cy="79.346154"
   inkscape:window-x="0"
   inkscape:window-y="28"
   inkscape:window-maximized="0"
   inkscape:current-layer="svg2" />
<path
   id="rect1942_1_"
   inkscape:export-xdpi="7.7063322"
   inkscape:export-filename="C:\Documents and Settings\Molumen\Desktop\path3511111.png"
   inkscape:export-ydpi="7.7063322"
   d="M 16.556997,0.41090855 H 3.2467867 c -1.590312,0 -2.8795044,1.28919205 -2.8795044,2.87950405 V 16.599001 c 0,1.590312 1.2891924,2.879422 2.8795044,2.879422 H 16.556835 c 1.590717,0 2.879504,-1.289191 3.041788,-2.8253 V 3.3446158 C 19.43642,1.7001818 18.147147,0.41090855 16.556997,0.41090855 Z"
   style="fill:#467599;fill-opacity:1;stroke-width:0.08114251"
   inkscape:connector-curvature="0" />
<linearGradient
   id="SVGID_1_"
   gradientUnits="userSpaceOnUse"
   x1="-96.500504"
   y1="-1287.167"
   x2="-96.500504"
   y2="-1414.796"
   gradientTransform="matrix(0.0811425,0,0,-0.0811425,17.813246,-103.97934)">
	<stop
   offset="0"
   style="stop-color:#FFFFFF;stop-opacity:0.85"
   id="stop3" />
	<stop
   offset="0.66"
   style="stop-color:#FFFFFF;stop-opacity:0"
   id="stop5" />
</linearGradient>
<path
   d="M 16.556997,0.41090855 H 3.2467867 c -1.590312,0 -2.8795044,1.28927325 -2.8795044,2.87950405 v 5.6320202 c 2.9479073,1.1969332 6.1705628,1.8578392 9.5481195,1.8578392 3.4293252,0 6.6989632,-0.681192 9.6832212,-1.9130162 v -5.52264 C 19.43642,1.7001818 18.147147,0.41090855 16.556997,0.41090855 Z"
   id="path8"
   style="fill:url(#SVGID_1_);stroke-width:0.08114251"
   inkscape:connector-curvature="0" />
<path
   stroke-miterlimit="10"
   d="M 19.598623,13.171097 V 4.8377207 C 19.43642,2.3563553 18.147147,0.41090855 16.556997,0.41090855 H 3.2467051 c -1.5903121,0 -2.8794228,1.94544675 -2.8794228,4.34502205 v 8.4984254"
   id="path10"
   inkscape:connector-curvature="0"
   style="fill:none;stroke:#2c3e50;stroke-width:0.19934967;stroke-miterlimit:10;stroke-opacity:1" />
<g
   id="g19"
   transform="matrix(0.08114251,0,0,0.08114251,-0.40324657,-0.44149327)">
	
		<linearGradient
   id="SVGID_2_"
   gradientUnits="userSpaceOnUse"
   x1="-96.499496"
   y1="-1414.001"
   x2="-96.499496"
   y2="-1521.5126"
   gradientTransform="matrix(1,0,0,-1,224.5,-1276)">
		<stop
   offset="0"
   style="stop-color:#000000;stop-opacity:0.15"
   id="stop12" />
		<stop
   offset="0.6626"
   style="stop-color:#000000;stop-opacity:0"
   id="stop14" />
	</linearGradient>
	<path
   d="m 9.496,115.401 v 94.605 c 0,19.6 15.888,35.486 35.487,35.486 h 164.033 c 19.604,0 35.488,-15.889 37.488,-34.819 V 114.721 C 209.725,129.902 169.43,138.297 127.167,138.297 85.542,138.298 45.825,130.152 9.496,115.401 Z"
   id="path17"
   style="fill:url(#SVGID_2_)"
   inkscape:connector-curvature="0" />
</g>
<g
   id="g27"
   transform="matrix(0.08114251,0,0,0.08114251,1.2196033,-0.44149327)">
	<g
   id="g25"
   transform="translate(-20,60)"
   style="fill:none">
		<g
   id="g23"
   style="fill:none;stroke:#2c3e50;stroke-opacity:1"
   transform="translate(0,-60)">
			<path
   stroke-miterlimit="10"
   d="m 9.496,115.401 v 94.605 c 0,19.6 15.888,35.486 35.486,35.486 h 164.034 c 19.604,0 35.487,-15.889 37.487,-34.819 v -95.952"
   id="path21"
   inkscape:connector-curvature="0"
   style="fill:none;stroke:#2c3e50;stroke-width:2;stroke-miterlimit:10;stroke-opacity:1" />
		</g>
	</g>
</g>
<g
   id="g3027"
   transform="matrix(0.08114251,0,0,-0.08114251,-0.40324657,124.1934)">
	<path
   d="m 216.57,1356.871 c 0,1.272 -0.115,2.199 -0.347,2.777 -0.347,0.926 -2.575,2.632 -6.683,5.12 -4.107,2.487 -9.229,5.351 -15.361,8.591 l -9.198,5.034 c -0.579,0.347 -1.679,1.099 -3.299,2.257 -1.62,1.156 -3.066,2.025 -4.339,2.604 -1.273,0.578 -2.487,0.868 -3.645,0.868 -2.084,0 -4.803,-1.881 -8.158,-5.642 -3.355,-3.761 -6.654,-7.551 -9.895,-11.369 -3.239,-3.818 -5.785,-5.729 -7.637,-5.729 -0.811,0 -1.765,0.203 -2.864,0.608 -1.099,0.404 -1.995,0.78 -2.689,1.128 -0.694,0.348 -1.679,0.896 -2.951,1.649 -1.272,0.751 -2.083,1.243 -2.431,1.475 -11.455,6.364 -21.319,13.685 -29.593,21.957 -8.274,8.274 -15.593,18.138 -21.957,29.594 -0.231,0.348 -0.724,1.157 -1.476,2.43 -0.752,1.272 -1.302,2.256 -1.648,2.95 -0.348,0.694 -0.724,1.591 -1.128,2.69 -0.405,1.1 -0.607,2.055 -0.607,2.864 0,1.504 1.186,3.443 3.558,5.815 2.372,2.372 4.976,4.6 7.811,6.683 2.835,2.083 5.439,4.368 7.811,6.855 2.372,2.488 3.558,4.6 3.558,6.336 0,1.157 -0.289,2.372 -0.867,3.645 -0.579,1.273 -1.447,2.72 -2.604,4.339 -1.157,1.62 -1.909,2.719 -2.256,3.298 -0.347,0.694 -1.215,2.344 -2.604,4.947 -1.389,2.603 -2.835,5.235 -4.339,7.897 -1.505,2.662 -3.038,5.41 -4.601,8.245 -1.562,2.835 -3.008,5.178 -4.339,7.029 -1.331,1.852 -2.285,2.894 -2.864,3.125 -0.579,0.231 -1.504,0.347 -2.777,0.347 -5.555,0 -11.398,-1.272 -17.53,-3.819 -5.323,-2.43 -9.952,-7.897 -13.886,-16.402 -3.934,-8.505 -5.902,-16.056 -5.902,-22.651 0,-1.852 0.145,-3.819 0.435,-5.901 0.289,-2.083 0.578,-3.848 0.868,-5.294 0.29,-1.446 0.81,-3.355 1.562,-5.728 0.752,-2.372 1.331,-4.079 1.736,-5.12 0.405,-1.042 1.128,-2.951 2.169,-5.728 1.042,-2.777 1.678,-4.513 1.91,-5.207 6.943,-18.977 19.469,-37.521 37.578,-55.631 18.11,-18.108 36.653,-30.635 55.63,-37.577 0.694,-0.231 2.431,-0.868 5.208,-1.909 2.777,-1.041 4.686,-1.766 5.727,-2.17 1.042,-0.404 2.749,-0.983 5.121,-1.736 2.372,-0.752 4.281,-1.271 5.729,-1.561 1.445,-0.289 3.21,-0.58 5.293,-0.869 2.083,-0.289 4.05,-0.434 5.902,-0.434 6.595,0 14.146,1.967 22.65,5.901 8.506,3.935 13.973,8.563 16.402,13.886 2.546,6.135 3.817,11.978 3.817,17.533 z"
   id="path29"
   inkscape:connector-curvature="0"
   style="fill:#ffffff" />
</g>
</svg>